HIERARCHY
ROOT hip
{
  OFFSET 0 0 0
  CHANNELS 6 Xposition Yposition Zposition Zrotation Yrotation Xrotation
  JOINT abdomen
  {
    OFFSET 0 20.6881 -0.73152
    CHANNELS 3 Zrotation Xrotation Yrotation
    JOINT chest
    {
      OFFSET 0 11.7043 -0.48768
      CHANNELS 3 Zrotation Xrotation Yrotation
      JOINT neck
      {
        OFFSET 0 22.1894 -2.19456
        CHANNELS 3 Zrotation Xrotation Yrotation
        JOINT head
        {
          OFFSET -0.24384 7.07133 1.2192
          CHANNELS 3 Zrotation Xrotation Yrotation
          JOINT leftEye
          {
            OFFSET 4.14528 8.04674 8.04672
            CHANNELS 3 Zrotation Xrotation Yrotation
            End Site
            {
              OFFSET 1 0 0
            }
          }
          JOINT rightEye
          {
            OFFSET -3.6576 8.04674 8.04672
            CHANNELS 3 Zrotation Xrotation Yrotation
            End Site
            {
              OFFSET 1 0 0
            }
          }
        }
      }
      JOINT rCollar
      {
        OFFSET -2.68224 19.2634 -4.8768
        CHANNELS 3 Zrotation Xrotation Yrotation
        JOINT rShldr
        {
          OFFSET -8.77824 -1.95073 1.46304
          CHANNELS 3 Zrotation Xrotation Yrotation
          JOINT rForeArm
          {
            OFFSET -28.1742 -1.7115 0.48768
            CHANNELS 3 Zrotation Xrotation Yrotation
            JOINT rHand
            {
              OFFSET -22.5879 0.773209 7.07136
              CHANNELS 3 Zrotation Xrotation Yrotation
              JOINT rThumb1
              {
                OFFSET -1.2192 -0.487915 3.41376
                CHANNELS 3 Zrotation Xrotation Yrotation
                JOINT rThumb2
                {
                  OFFSET -3.37035 -0.52449 3.41376
                  CHANNELS 3 Zrotation Xrotation Yrotation
                  End Site
                  {
                    OFFSET -1.78271 -1.18214 1.43049
                  }
                }
              }
              JOINT rIndex1
              {
                OFFSET -7.75947 0.938293 5.60832
                CHANNELS 3 Zrotation Xrotation Yrotation
                JOINT rIndex2
                {
                  OFFSET -2.54057 -0.884171 1.56538
                  CHANNELS 3 Zrotation Xrotation Yrotation
                  End Site
                  {
                    OFFSET -1.62519 -0.234802 1.16502
                  }
                }
              }
              JOINT rMid1
              {
                OFFSET -8.24714 1.18213 3.41376
                CHANNELS 3 Zrotation Xrotation Yrotation
                JOINT rMid2
                {
                  OFFSET -3.10165 -0.590103 1.0647
                  CHANNELS 3 Zrotation Xrotation Yrotation
                  End Site
                  {
                    OFFSET -2.48547 -0.328903 0.83742
                  }
                }
              }
              JOINT rRing1
              {
                OFFSET -8.82822 0.546677 1.51678
                CHANNELS 3 Zrotation Xrotation Yrotation
                JOINT rRing2
                {
                  OFFSET -2.60934 -0.819778 -0.0198488
                  CHANNELS 3 Zrotation Xrotation Yrotation
                  End Site
                  {
                    OFFSET -2.33842 -0.294052 0.168128
                  }
                }
              }
              JOINT rPinky1
              {
                OFFSET -8.27202 -0.0477905 -0.4584
                CHANNELS 3 Zrotation Xrotation Yrotation
                JOINT rPinky2
                {
                  OFFSET -1.82734 -0.647385 -0.700984
                  CHANNELS 3 Zrotation Xrotation Yrotation
                  End Site
                  {
                    OFFSET -1.69225 -0.51767 -0.607171
                  }
                }
              }
            }
          }
        }
      }
      JOINT lCollar
      {
        OFFSET 2.68224 19.2634 -4.8768
        CHANNELS 3 Zrotation Xrotation Yrotation
        JOINT lShldr
        {
          OFFSET 8.77824 -1.95073 1.46304
          CHANNELS 3 Zrotation Xrotation Yrotation
          JOINT lForeArm
          {
            OFFSET 28.1742 -1.7115 0.48768
            CHANNELS 3 Zrotation Xrotation Yrotation
            JOINT lHand
            {
              OFFSET 22.5879 0.773209 7.07136
              CHANNELS 3 Zrotation Xrotation Yrotation
              JOINT lThumb1
              {
                OFFSET 1.2192 -0.487915 3.41376
                CHANNELS 3 Zrotation Xrotation Yrotation
                JOINT lThumb2
                {
                  OFFSET 3.37035 -0.52449 3.41376
                  CHANNELS 3 Zrotation Xrotation Yrotation
                  End Site
                  {
                    OFFSET 1.78271 -1.18214 1.43049
                  }
                }
              }
              JOINT lIndex1
              {
                OFFSET 7.75947 0.938293 5.60832
                CHANNELS 3 Zrotation Xrotation Yrotation
                JOINT lIndex2
                {
                  OFFSET 2.54057 -0.884171 1.56538
                  CHANNELS 3 Zrotation Xrotation Yrotation
                  End Site
                  {
                    OFFSET 1.62519 -0.234802 1.16502
                  }
                }
              }
              JOINT lMid1
              {
                OFFSET 8.24714 1.18213 3.41376
                CHANNELS 3 Zrotation Xrotation Yrotation
                JOINT lMid2
                {
                  OFFSET 3.10165 -0.590103 1.0647
                  CHANNELS 3 Zrotation Xrotation Yrotation
                  End Site
                  {
                    OFFSET 2.48547 -0.328903 0.83742
                  }
                }
              }
              JOINT lRing1
              {
                OFFSET 8.82822 0.546677 1.51678
                CHANNELS 3 Zrotation Xrotation Yrotation
                JOINT lRing2
                {
                  OFFSET 2.60934 -0.819778 -0.0198488
                  CHANNELS 3 Zrotation Xrotation Yrotation
                  End Site
                  {
                    OFFSET 2.33842 -0.294052 0.168128
                  }
                }
              }
              JOINT lPinky1
              {
                OFFSET 8.27202 -0.0477905 -0.4584
                CHANNELS 3 Zrotation Xrotation Yrotation
                JOINT lPinky2
                {
                  OFFSET 1.82734 -0.647385 -0.700984
                  CHANNELS 3 Zrotation Xrotation Yrotation
                  End Site
                  {
                    OFFSET 1.69225 -0.51767 -0.607171
                  }
                }
              }
            }
          }
        }
      }
    }
  }
  JOINT rButtock
  {
    OFFSET -8.77824 4.35084 1.2192
    CHANNELS 3 Zrotation Xrotation Yrotation
    JOINT rThigh
    {
      OFFSET 0 -1.70687 -2.19456
      CHANNELS 3 Zrotation Xrotation Yrotation
      JOINT rShin
      {
        OFFSET 0 -36.8199 0.73152
        CHANNELS 3 Zrotation Xrotation Yrotation
        JOINT rFoot
        {
          OFFSET 0.73152 -45.1104 -5.12064
          CHANNELS 3 Zrotation Xrotation Yrotation
          End Site
          {
            OFFSET -1.1221 -3.69964 12.103
          }
        }
      }
    }
  }
  JOINT lButtock
  {
    OFFSET 8.77824 4.35084 1.2192
    CHANNELS 3 Zrotation Xrotation Yrotation
    JOINT lThigh
    {
      OFFSET 0 -1.70687 -2.19456
      CHANNELS 3 Zrotation Xrotation Yrotation
      JOINT lShin
      {
        OFFSET 0 -36.8199 0.73152
        CHANNELS 3 Zrotation Xrotation Yrotation
        JOINT lFoot
        {
          OFFSET -0.73152 -45.1104 -5.12064
          CHANNELS 3 Zrotation Xrotation Yrotation
          End Site
          {
            OFFSET 1.1221 -3.69964 12.103
          }
        }
      }
    }
  }
}
MOTION
Frames:	5
Frame Time:	0.00833333
76.7581 85.3166 -88.3664 0.0 0.0 0.0 1.08607 -0.00408982 0.0298996 0.299449 -0.00345805 0.0518749 -2.11098e-15 7.95139e-16 -4.96962e-17 -6.69345e-15 9.54166e-15 -1.41323e-16 -0.0 0.0 0.0 -0.0 0.0 0.0 -9.95504e-16 -3.8631e-17 9.93923e-17 -2.14917e-14 -7.0817e-16 1.98785e-16 -3.88475e-13 8.96519e-14 0.0 -4.39947e-12 -2.45027e-13 -1.33583e-13 -1.03906e-11 -3.37507e-13 -2.70347e-13 -1.79558e-11 -5.85222e-13 -4.78673e-13 -1.03893e-11 -3.37139e-13 -2.8943e-13 7.73091 5.47488 0.417314 -1.03927e-11 -3.38331e-13 -2.73528e-13 2.90554 0.965183 0.102902 -1.0387e-11 -3.37835e-13 -2.76708e-13 10.2786 0.731801 0.0259123 -1.03966e-11 -3.34753e-13 -2.67167e-13 2.22167 -0.733487 -0.20892 -1.1912e-15 -3.80486e-17 -1.98785e-16 -2.3055e-14 -1.0312e-15 -1.59028e-15 -3.78884e-13 -1.46107e-13 -9.54166e-15 -4.41367e-12 -3.3694e-14 -1.17681e-13 -1.03936e-11 -3.88071e-13 -2.73528e-13 -1.79447e-11 -6.74278e-13 -4.76288e-13 -1.03956e-11 -3.88823e-13 -2.67167e-13 -7.73091 5.47488 -0.417314 -1.03931e-11 -3.88226e-13 -2.76708e-13 -2.90554 0.965183 -0.102902 -1.03973e-11 -3.88226e-13 -2.73528e-13 -10.2786 0.731801 -0.0259123 -1.03837e-11 -3.84847e-13 -2.83069e-13 -2.22167 -0.733487 0.20892 -2.03217e-16 0.0 -3.88251e-19 1.33852 -5.65668 -0.117783 0.000449915 4.68997 0.0313171 -0.524455 0.964903 0.0795267 2.03217e-16 0.0 3.88251e-19 0.313313 -1.92005 0.011867 0.00934947 -2.07854 0.0772663 0.510033 3.99665 -0.139984
75.7934 83.4137 -89.0727 -2.0596 -5.6809 1.1314 0.288542 1.8746 1.75367 0.18286 0.438709 0.493479 -3.16595 -0.229401 -0.924749 3.34936 -0.281339 -0.864706 -0.0 0.0 0.0 -0.0 0.0 0.0 -5.4766e-15 -3.43178e-14 3.39161e-14 16.1436 20.0878 -1.36017 -9.75994 -6.61867 12.1425 0.0738767 -6.0354 -0.831318 -4.92806e-10 4.86523e-10 -1.25271e-10 -8.47377e-10 8.45253e-10 -2.24292e-10 -4.92806e-10 4.86526e-10 -1.25293e-10 7.73091 5.47488 0.417314 -4.92808e-10 4.86523e-10 -1.25276e-10 2.90554 0.965183 0.102902 -4.928e-10 4.86522e-10 -1.25277e-10 10.2786 0.731801 0.0259123 -4.92811e-10 4.86523e-10 -1.25267e-10 2.22167 -0.733487 -0.20892 -5.62154e-15 -3.43188e-14 3.36893e-14 -20.5655 3.89659 0.830802 4.74271 -2.27029 -7.27831 -0.0261011 3.58932 -0.500892 -1.03003e-10 -5.92677e-10 -3.62466e-10 -1.81876e-10 -1.0276e-09 -6.25586e-10 -1.03003e-10 -5.92677e-10 -3.62458e-10 -7.73091 5.47488 -0.417314 -1.03001e-10 -5.92676e-10 -3.62467e-10 -2.90554 0.965183 -0.102902 -1.03001e-10 -5.92676e-10 -3.62466e-10 -10.2786 0.731801 -0.0259123 -1.02994e-10 -5.92674e-10 -3.62476e-10 -2.22167 -0.733487 0.20892 -2.03217e-16 0.0 -3.88251e-19 0.701143 -6.79185 0.989061 -0.0818355 18.5692 0.180893 -0.482267 8.34323 -1.44832 2.03217e-16 0.0 3.88251e-19 -0.0298294 -8.80056 1.22182 0.0450685 6.98864 0.0278543 0.448898 1.97198 -0.659925
75.937 83.4621 -88.1694 -1.5787 -5.9779 0.9305 -0.675191 3.84645 3.57784 0.0495178 0.904942 0.959467 -6.52784 -0.47412 -1.90361 6.89193 -0.576425 -1.7789 -0.0 0.0 0.0 -0.0 0.0 0.0 -1.04539e-14 -7.15781e-14 7.10779e-14 34.5764 41.2827 -3.51535 -17.0619 -12.6183 25.4682 -0.0426032 -12.4138 -1.7417 -1.02708e-09 1.01729e-09 -2.55807e-10 -1.76615e-09 1.76754e-09 -4.5849e-10 -1.02708e-09 1.01729e-09 -2.55832e-10 7.73091 5.47488 0.417314 -1.02708e-09 1.01729e-09 -2.55814e-10 2.90554 0.965183 0.102902 -1.02708e-09 1.01729e-09 -2.55813e-10 10.2786 0.731801 0.0259123 -1.02709e-09 1.01729e-09 -2.55801e-10 2.22167 -0.733487 -0.20892 -1.05434e-14 -7.15808e-14 7.09289e-14 -42.4461 7.9735 1.74168 9.14053 -4.55269 -15.0179 0.0150217 7.36231 -1.03412 -1.99196e-10 -1.24051e-09 -7.59886e-10 -3.5236e-10 -2.15086e-09 -1.31157e-09 -1.99195e-10 -1.24051e-09 -7.59876e-10 -7.73091 5.47488 -0.417314 -1.99193e-10 -1.24051e-09 -7.59885e-10 -2.90554 0.965183 -0.102902 -1.99189e-10 -1.24051e-09 -7.59886e-10 -10.2786 0.731801 -0.0259123 -1.99188e-10 -1.24051e-09 -7.59897e-10 -2.22167 -0.733487 0.20892 -2.03217e-16 0.0 -3.88251e-19 0.0834208 -7.90086 2.18343 -0.260501 33.1349 0.38016 0.00462022 16.1999 -3.10905 2.03217e-16 0.0 3.88251e-19 -0.0524351 -16.1175 2.57582 0.100488 16.5867 -0.025811 0.342961 -0.140462 -1.22743
76.181 83.5499 -87.1926 -0.9786 -5.9425 0.5709 -1.64652 5.61137 5.2235 -0.0707692 1.32271 1.37701 -9.52004 -0.687485 -2.77442 10.0226 -0.843249 -2.59437 -0.0 0.0 0.0 -0.0 0.0 0.0 -1.44388e-14 -1.02876e-13 1.01549e-13 53.7065 60.0553 -7.69468 -21.2192 -16.267 37.9487 -0.326842 -18.0905 -2.60919 -1.45764e-09 1.46024e-09 -3.75273e-10 -2.50622e-09 2.53693e-09 -6.71919e-10 -1.45764e-09 1.46025e-09 -3.75301e-10 7.73091 5.47488 0.417314 -1.45764e-09 1.46025e-09 -3.75282e-10 2.90554 0.965183 0.102902 -1.45763e-09 1.46024e-09 -3.75279e-10 10.2786 0.731801 0.0259123 -1.45764e-09 1.46024e-09 -3.75267e-10 2.22167 -0.733487 -0.20892 -1.44822e-14 -1.0288e-13 1.01466e-13 -62.0416 11.6798 2.53925 12.5354 -6.3722 -21.9604 0.112816 10.7646 -1.5266 -2.88221e-10 -1.77725e-09 -1.08685e-09 -5.0974e-10 -3.08145e-09 -1.8758e-09 -2.88218e-10 -1.77725e-09 -1.08684e-09 -7.73091 5.47488 -0.417314 -2.88216e-10 -1.77725e-09 -1.08685e-09 -2.90554 0.965183 -0.102902 -2.88208e-10 -1.77725e-09 -1.08685e-09 -10.2786 0.731801 -0.0259123 -2.88213e-10 -1.77725e-09 -1.08686e-09 -2.22167 -0.733487 0.20892 -2.03217e-16 0.0 -3.88251e-19 -0.440553 -9.05107 3.22092 -0.552151 46.3262 0.654558 0.868426 23.0338 -4.84508 2.03217e-16 0.0 3.88251e-19 0.218027 -22.5205 3.8961 0.165801 25.123 -0.0789583 0.216394 -2.07607 -1.70043
76.5534 83.6477 -86.1019 -0.2682 -5.4995 0.1277 -2.40047 6.87808 6.40225 -0.144138 1.61962 1.67314 -11.5719 -0.82317 -3.37495 12.1412 -1.04014 -3.16279 -0.0 0.0 0.0 -0.0 0.0 0.0 -1.59426e-14 -1.19269e-13 1.15295e-13 72.3892 72.8611 -15.7674 -23.0934 -17.4926 46.8573 -0.634616 -22.028 -3.25972 -1.62888e-09 1.68368e-09 -4.67068e-10 -2.79956e-09 2.92409e-09 -8.33426e-10 -1.62888e-09 1.68369e-09 -4.67096e-10 7.73091 5.47488 0.417314 -1.62888e-09 1.68368e-09 -4.67077e-10 2.90554 0.965183 0.102902 -1.62887e-09 1.68368e-09 -4.67074e-10 10.2786 0.731801 0.0259123 -1.62888e-09 1.68368e-09 -4.67061e-10 2.22167 -0.733487 -0.20892 -1.59634e-14 -1.19274e-13 1.15245e-13 -75.6708 14.47 3.00862 14.6096 -7.45695 -26.7888 0.220057 13.2433 -1.89545 -3.59322e-10 -2.03628e-09 -1.23767e-09 -6.34363e-10 -3.53036e-09 -2.13566e-09 -3.59319e-10 -2.03628e-09 -1.23766e-09 -7.73091 5.47488 -0.417314 -3.59318e-10 -2.03628e-09 -1.23767e-09 -2.90554 0.965183 -0.102902 -3.59307e-10 -2.03628e-09 -1.23767e-09 -10.2786 0.731801 -0.0259123 -3.59315e-10 -2.03628e-09 -1.23768e-09 -2.22167 -0.733487 0.20892 -2.03217e-16 0.0 -3.88251e-19 -0.812275 -10.3133 3.85502 -0.92054 56.0828 0.990462 1.78721 27.3653 -6.45548 2.03217e-16 0.0 3.88251e-19 0.520978 -26.6782 4.88643 0.220278 31.0046 -0.121521 0.120133 -3.57115 -1.93494
